# xmcd
#
# Track frame offsets: 
#        150
#        11775
#        14625
#        46275
#        57225
#        65850
#        81000
#        85275
#        101985
#        109255
#        121950
#        137550
#        141600
#        164061
#        179286
#        203100
#        206700
#        212100
#        246300
#        267830
#
# Disc length: 3834 seconds
#
# Revision: 0
# Processed by: cddbd v1.5.2PL0 Copyright (c) Steve Scherf et al.
# Submitted via: ExactAudioCopy v1.0b1
#
DISCID=3d0ef814
DTITLE=Miklos Spanyi - Bach (CPE): Solo keyboard music v. 23
DYEAR=2008
DGENRE=Clavichord
TTITLE0=Clavierstück für die rechte oder linke Hand allein, keyboard  
TTITLE0=H 241
TTITLE1=Fantasia, keyboard, d minor     H 224
TTITLE2=Sonata, keyboard, G Major   Allegretto  H 063 
TTITLE3=Sonata, keyboard, G Major   Andante  H 063
TTITLE4=Sonata, keyboard, G Major   Allegro  H 063
TTITLE5=Fugue, keyboard, d minor     H 099 
TTITLE6=Fantasia, keyboard, G Major     H 223 
TTITLE7=Sonata, keyboard, G Major   Allegretto  H 077
TTITLE8=Sonata, keyboard, G Major   Andantino  H 077 
TTITLE9=Sonata, keyboard, G Major   Allegro  H 077 
TTITLE10=Fantasia, keyboard, D Major     H 160
TTITLE11=Solfeggio, keyboard, A Major     H 222
TTITLE12=Sonata, keyboard, c minor   Allegro assai ma pomposo  H 121 
TTITLE13=Sonata, keyboard, c minor   Andantino  H 121 
TTITLE14=Sonata, keyboard, c minor   Allegro scherzando  H 121
TTITLE15=Solfeggio, keyboard, E-Flat Major     H 221 
TTITLE16=Solfeggio, keyboard, c minor     H 220 
TTITLE17=Sonata, keyboard, A Major   Allegro  H 135
TTITLE18=Sonata, keyboard, A Major   Andante con tenerezza  H 135
TTITLE19=Sonata, keyboard, A Major   Allegretto  H 135 
EXTD=
EXTT0=
EXTT1=
EXTT2=
EXTT3=
EXTT4=
EXTT5=
EXTT6=
EXTT7=
EXTT8=
EXTT9=
EXTT10=
EXTT11=
EXTT12=
EXTT13=
EXTT14=
EXTT15=
EXTT16=
EXTT17=
EXTT18=
EXTT19=
PLAYORDER=
